<svg width="96" height="97" viewBox="0 0 96 97" fill="none" xmlns="http://www.w3.org/2000/svg">
<rect width="94.8269" height="97" transform="translate(0.86145)" fill="white"/>
<path d="M24.5682 28.2917H44.3238C45.3717 28.2917 46.3767 28.7175 47.1176 29.4755C47.8586 30.2334 48.2749 31.2614 48.2749 32.3334C48.2749 33.4053 47.8586 34.4333 47.1176 35.1912C46.3767 35.9492 45.3717 36.375 44.3238 36.375H24.5682C23.5203 36.375 22.5153 35.9492 21.7743 35.1912C21.0333 34.4333 20.6171 33.4053 20.6171 32.3334C20.6171 31.2614 21.0333 30.2334 21.7743 29.4755C22.5153 28.7175 23.5203 28.2917 24.5682 28.2917V28.2917ZM52.226 60.625H71.9816C73.0295 60.625 74.0345 61.0508 74.7755 61.8088C75.5165 62.5668 75.9327 63.5948 75.9327 64.6667C75.9327 65.7386 75.5165 66.7666 74.7755 67.5246C74.0345 68.2825 73.0295 68.7083 71.9816 68.7083H52.226C51.1781 68.7083 50.1731 68.2825 49.4322 67.5246C48.6912 66.7666 48.2749 65.7386 48.2749 64.6667C48.2749 63.5948 48.6912 62.5668 49.4322 61.8088C50.1731 61.0508 51.1781 60.625 52.226 60.625ZM24.5682 44.4584H71.9816C73.0295 44.4584 74.0345 44.8842 74.7755 45.6421C75.5165 46.4001 75.9327 47.4281 75.9327 48.5C75.9327 49.5719 75.5165 50.5999 74.7755 51.3579C74.0345 52.1159 73.0295 52.5417 71.9816 52.5417H24.5682C23.5203 52.5417 22.5153 52.1159 21.7743 51.3579C21.0333 50.5999 20.6171 49.5719 20.6171 48.5C20.6171 47.4281 21.0333 46.4001 21.7743 45.6421C22.5153 44.8842 23.5203 44.4584 24.5682 44.4584Z" fill="black"/>
</svg>
